<svg xmlns="http://www.w3.org/2000/svg" viewBox="0 0 340 300">
  <path fill="#FFF" d="M329.077 196.263L236.24 289.02c-6.788 6.78-16.17 10.982-26.532 10.982h-79.53c-9.43 0-18.046-3.48-24.638-9.213l-94.667-94.6c-14.523-14.506-14.523-38.253 0-52.763L143.54 10.864c14.52-14.51 38.28-14.51 52.8 0l132.737 132.63c14.52 14.507 14.52 38.254 0 52.77zM192.644 86.766l-18.94-18.923c-2.07-2.067-5.46-2.067-7.533 0L67.838 166.11c-2.07 2.06-2.07 5.454 0 7.516l13.512 13.497c.938.82 2.168 1.314 3.51 1.314h11.345c1.476 0 2.818-.597 3.79-1.567l92.65-92.578c2.073-2.066 2.073-5.454 0-7.526zm0 79.358l-18.934-18.938c-2.07-2.064-5.465-2.064-7.54 0l-58.628 58.59c-2.07 2.072-2.07 5.457 0 7.532l13.505 13.492c.94.82 2.17 1.307 3.518 1.307h11.35c1.474 0 2.81-.59 3.78-1.56l52.95-52.908c2.073-2.076 2.073-5.457 0-7.516zm0 79.332l-18.94-18.92c-2.063-2.074-5.46-2.074-7.533 0l-18.924 18.916c-2.07 2.066-2.07 5.46 0 7.52l13.506 13.498c.943.82 2.167 1.317 3.518 1.317h11.344c1.48 0 2.817-.6 3.788-1.57l13.242-13.232c2.074-2.067 2.074-5.463 0-7.53z"/>
</svg>