<svg xmlns="http://www.w3.org/2000/svg" viewBox="0 0 420 280">
  <path fill="#FFF" d="M271.686 113.75c1.752 9.36 2.71 19.162 2.71 29.398C274.396 223.125 220.85 280 140 280 62.65 280 0 217.35 0 140S62.65 0 140 0c37.803 0 69.385 13.91 93.627 36.487l-39.47 39.465v-.09c-14.696-14-33.332-21.174-54.157-21.174-46.198 0-83.736 39.024-83.736 85.227 0 46.194 37.538 85.312 83.736 85.312 41.913 0 70.436-23.977 76.307-56.875H140V113.75h131.686zm104.564 8.75V78.75h-35v43.75H297.5v35h43.75v43.75h35V157.5H420v-35"/>
</svg>