<svg xmlns="http://www.w3.org/2000/svg" viewBox="0 0 356 300">
  <path fill="#FFF" d="M280.01 0h70v200.005h-70V0zM215.192 160.596c-11.844-13.24-28.314-20.683-49.443-22.288 18.794-5.122 32.442-12.616 41.076-22.628 8.593-9.88 12.856-23.292 12.856-40.17 0-13.363-2.922-25.185-8.58-35.398-5.804-10.152-14.14-18.276-25.1-24.357-9.587-5.274-20.98-8.994-34.263-11.188C138.39 2.44 115.03 1.37 81.507 1.37H0v297.26h83.976c33.737 0 58.064-1.182 72.94-3.44 14.863-2.338 27.334-6.27 37.428-11.663 12.484-6.587 22.007-15.964 28.662-28.01 6.698-12.085 10.014-26.02 10.014-41.956-.003-22.046-5.94-39.762-17.828-52.964zM75.26 67.27h17.398c20.108 0 33.617 2.267 40.59 6.787 6.877 4.542 10.388 12.38 10.388 23.547 0 10.745-3.733 18.313-11.118 22.75-7.483 4.355-21.117 6.563-41.08 6.563H75.26V67.27zm69.016 170.463c-7.916 4.862-21.557 7.25-40.696 7.25H75.265v-64.948h29.54c19.654 0 33.243 2.475 40.47 7.414 7.342 4.94 10.954 13.664 10.954 26.19-.004 11.21-3.967 19.26-11.954 24.093zM315.014 220.003c-22.1 0-40.002 17.89-40.002 39.99S292.914 300 315.014 300c22.072 0 39.99-17.906 39.99-40.006s-17.916-39.99-39.99-39.99z"/>
</svg>