<svg xmlns="http://www.w3.org/2000/svg" viewBox="0 0 300 300">
  <path fill="#FFF" d="M0 269.53V30.47c.198-.646.445-1.28.586-1.94C3.706 13.98 12.48 4.81 26.822.93c1.21-.327 2.43-.62 3.646-.93H269.53c.546.186 1.08.435 1.64.55 14.718 3.003 23.966 11.81 27.895 26.266.33 1.213.624 2.435.934 3.653v239.06c-.2.646-.465 1.28-.587 1.938-2.566 13.928-13.067 24.815-26.798 27.77-1.035.224-2.057.506-3.085.76H30.468c-.546-.185-1.078-.446-1.64-.547-14.075-2.533-24.78-12.683-27.98-26.546-.26-1.128-.564-2.248-.848-3.373zm34.69-142.473c-.05 1.014-.12 1.778-.12 2.54-.005 41.205-.016 82.408.006 123.612.004 7.466 4.963 12.218 12.693 12.22 68.444.01 136.89.01 205.334 0 8.148 0 12.83-4.75 12.83-12.97.006-40.717.003-81.432.003-122.148v-3.21h-25.98c6.44 28.517 1.902 54.82-15.658 78.12-17.597 23.347-41.374 35.762-70.666 36.886-24.51.94-46.312-6.725-64.39-23.25-27.186-24.852-35.797-55.882-28.332-91.802h-25.72zm173.02 23.05c.133-31.834-25.737-57.77-57.67-57.817-31.78-.048-57.462 25.503-57.748 57.45-.284 31.77 25.51 57.76 57.525 57.962 31.81.2 57.76-25.615 57.893-57.594zm29.04-115.56c-5.563 0-11.126-.033-16.69.008-7.38.054-12.276 4.61-12.377 11.93-.157 11.32-.155 22.645.003 33.965.1 7.115 4.713 11.755 11.82 11.86 11.32.167 22.645.16 33.966.01 7.333-.098 11.94-5.007 11.957-12.34.027-11.03.03-22.06-.002-33.09-.02-7.407-4.857-12.263-12.28-12.334-5.465-.05-10.93-.01-16.397-.01z"/>
</svg>