<svg xmlns="http://www.w3.org/2000/svg" viewBox="0 0 315 300">
  <path fill="#FFF" d="M280.344 206.35h.01c-32.935 38.025-106.59 84.336-123.348 91.414-16.755 7.08-14.282-4.506-13.597-8.478.4-2.377 2.238-13.49 2.238-13.49.53-4.023 1.077-10.253-.51-14.223-1.764-4.376-8.72-6.67-13.83-7.77C55.86 243.806.003 190.898.003 127.75.004 57.308 70.444-.006 157.006-.006c86.573 0 156.998 57.313 156.998 127.754 0 28.198-10.896 53.594-33.66 78.603zM95.547 153.147H72.58V98.84c0-4.544-3.686-8.257-8.228-8.257-4.533 0-8.225 3.713-8.225 8.258V161.4c0 4.562 3.692 8.262 8.225 8.262h31.195c4.545 0 8.23-3.7 8.23-8.262 0-4.547-3.685-8.252-8.23-8.252zM127.81 98.84c0-4.544-3.69-8.257-8.227-8.257-4.537 0-8.227 3.713-8.227 8.258V161.4c0 4.562 3.69 8.262 8.227 8.262 4.537 0 8.227-3.7 8.227-8.262V98.84zm75.098 0c0-4.544-3.69-8.257-8.232-8.257-4.54 0-8.234 3.713-8.234 8.258v38.72l-31.976-43.666c-1.54-2.076-4.006-3.31-6.574-3.31-.885 0-1.765.146-2.61.426-3.366 1.132-5.632 4.277-5.632 7.83V161.4c0 4.562 3.695 8.262 8.235 8.262 4.542 0 8.23-3.7 8.23-8.262v-38.693l31.975 43.65c1.547 2.076 4.004 3.305 6.577 3.305.88 0 1.767-.14 2.612-.424 3.37-1.122 5.628-4.27 5.628-7.838V98.84zm50.477 39.54c4.542 0 8.232-3.706 8.232-8.25 0-4.56-3.69-8.258-8.232-8.258h-22.96v-14.77h22.96c4.542 0 8.232-3.704 8.232-8.26 0-4.546-3.69-8.26-8.232-8.26h-31.198c-4.537 0-8.232 3.714-8.232 8.26v62.556c0 4.562 3.7 8.262 8.232 8.262h31.198c4.53 0 8.232-3.7 8.232-8.262 0-4.547-3.702-8.252-8.232-8.252h-22.96V138.38h22.96z"/>
</svg>