<svg xmlns="http://www.w3.org/2000/svg" viewBox="0 0 300 300">
  <path fill="#FFF" d="M277.82 0H22.16C9.925 0 0 9.626 0 21.49v257.026C0 290.374 9.924 300 22.16 300h255.66c12.256 0 22.18-9.632 22.18-21.485V21.49C300 9.62 290.07 0 277.82 0zM90.933 251.138h-45.31V115.674h45.31v135.464zM68.28 97.168h-.304c-15.2 0-25.032-10.404-25.032-23.402 0-13.288 10.137-23.403 25.633-23.403 15.502 0 25.038 10.115 25.34 23.403 0 13-9.844 23.403-25.638 23.403zm186.045 153.97h-45.31V178.65c0-18.203-6.556-30.628-22.95-30.628-12.517 0-19.97 8.378-23.254 16.472-1.195 2.89-1.486 6.93-1.486 10.984v75.654h-45.31s.594-122.767 0-135.464h45.31v19.174c6.02-9.228 16.79-22.37 40.844-22.37 29.81 0 52.164 19.366 52.164 60.98v77.686h-.007z"/>
</svg>