<svg xmlns="http://www.w3.org/2000/svg" viewBox="0 0 256 80"><path fill="#B3B3B3" d="M229.912 80c-7.475 0-13.66-2.573-18.385-7.646-4.744-5.094-7.15-11.128-7.15-17.935 0-6.75 2.275-12.69 6.76-17.65 4.928-5.46 11.244-8.22 18.775-8.22 7.5 0 13.8 2.75 18.728 8.17 4.485 4.95 6.76 10.9 6.76 17.69 0 6.8-2.406 12.84-7.15 17.93-4.725 5.07-10.894 7.65-18.338 7.65zm-.023-47.09c-5.71 0-10.68 2.135-14.77 6.344-4.09 4.2-6.16 9.35-6.16 15.305 0 3.84.94 7.47 2.8 10.79 1.86 3.33 4.43 5.93 7.61 7.75 3.172 1.81 6.71 2.73 10.5 2.73s7.323-.92 10.5-2.73c3.182-1.82 5.744-4.43 7.612-7.76 1.86-3.32 2.803-6.95 2.803-10.79 0-5.96-2.08-11.11-6.184-15.31-4.11-4.21-9.07-6.34-14.74-6.34z"/><path d="M45.585 57.166c-.68 1.177-2.227 2.413-3.05 3.07-2.235 1.778-3.753 2.75-6.258 3.813-3.285 1.39-5.964 1.9-9.27 1.85-5.633-.09-9.428-.78-13.818-4.13C8.81 58.44 6.06 53.66 5 47.6l-.185-.383 45.256-7.58c-1.15-6.05-3.74-11.05-7.67-14.71-5.84-5.47-12.96-7.58-21.17-6.328-7.96 1.21-13.93 5.26-17.75 12.05C.45 36.01-.61 41.83.32 47.95c.99 6.5 4.145 12.07 9.374 16.556 5.185 4.447 11.763 5.555 19.7 5.135 4.05-.21 6.23-.6 9.727-2.27 2.74-1.3 4.76-2.4 7.07-4.57.72-.68 2.39-2.39 2.94-3.3-.69-.56-.762-.5-1.452-.96-.47-.31-1.55-.962-2.084-1.363zM4.812 41.7c.644-4.997 2.156-9.033 4.51-11.877 3.217-3.898 7.47-6.274 12.64-7.062 3.128-.47 6.257-.25 9.297.64 3.04.89 5.64 2.33 7.72 4.24 2.06 1.91 3.84 4.65 5.28 8.09l.51 1.27-40.13 6.11.16-1.41zM93.12 69.74c-7.73 0-14.224-2.484-19.3-7.382-5.068-4.887-7.637-10.916-7.637-17.92 0-4.717 1.203-9.16 3.576-13.205 2.37-4.042 5.67-7.24 9.82-9.51 4.16-2.274 8.89-3.427 14.05-3.427 3.24 0 6.41.502 9.43 1.492 3.01.988 5.59 2.29 7.67 3.865 1.82 1.378 3.42 3.113 4.76 5.167l-3.538 2.196c-4.617-5.707-10.868-8.6-18.598-8.6-6.446 0-11.88 2.11-16.154 6.27-4.28 4.17-6.45 9.303-6.45 15.262 0 3.87.998 7.564 2.964 10.975 1.97 3.418 4.71 6.11 8.15 8 3.425 1.882 7.31 2.836 11.54 2.836 7.46 0 13.684-2.89 18.52-8.6l3.54 2.33c-2.257 3.09-5.215 5.55-8.808 7.32-3.94 1.94-8.5 2.92-13.55 2.92zM172 69V45.186c0-5.997-.144-9.914-.635-11.975-.862-3.58-2.422-6.32-4.73-8.16-2.313-1.84-5.33-2.77-9.01-2.77-4.188 0-7.976 1.4-11.285 4.17-3.286 2.75-5.405 6.2-6.452 10.26-.65 2.61-.888 7.22-.888 14.1V69h-4V0h4v29.378l1.428-2.087c2.55-3.35 4.703-4.77 8.38-6.52 3.098-1.47 6.65-2.47 10.17-2.47 3.58 0 6.788.92 9.55 2.73 2.762 1.81 4.983 4.28 6.298 7.34 1.34 3.12 2.174 8.13 2.174 14.91V69h-5zm47.65.74c-7.474 0-13.66-2.574-18.384-7.647-4.744-5.094-7.15-11.128-7.15-17.935 0-6.75 2.275-12.686 6.76-17.642 4.928-5.455 11.244-8.22 18.775-8.22 7.5 0 13.81 2.75 18.73 8.175 4.49 4.96 6.76 10.91 6.76 17.69 0 6.81-2.4 12.84-7.15 17.94-4.72 5.07-10.89 7.65-18.34 7.65zm-.022-47.09c-5.706 0-10.674 2.134-14.767 6.343-4.08 4.2-6.15 9.35-6.15 15.305 0 3.84.95 7.47 2.81 10.79 1.87 3.33 4.43 5.94 7.62 7.754 3.18 1.81 6.71 2.73 10.51 2.73s7.327-.92 10.504-2.73c3.186-1.816 5.747-4.425 7.615-7.754 1.86-3.32 2.806-6.95 2.806-10.79 0-5.955-2.08-11.105-6.18-15.307-4.11-4.2-9.07-6.34-14.74-6.34z" fill="#333"/></svg>