<svg xmlns="http://www.w3.org/2000/svg" viewBox="0 0 300 300">
  <path fill="#FFF" d="M150.003 0C67.165 0 0 67.147 0 150.003c0 61.414 36.933 114.18 89.783 137.38-.42-10.482-.073-23.043 2.613-34.44 2.88-12.183 19.298-81.736 19.298-81.736s-4.794-9.576-4.794-23.732c0-22.222 12.884-38.82 28.93-38.82 13.644 0 20.235 10.245 20.235 22.507 0 13.718-8.753 34.228-13.25 53.227-3.75 15.916 7.98 28.897 23.68 28.897 28.416 0 47.56-36.5 47.56-79.75 0-32.876-22.142-57.485-62.412-57.485-45.503 0-73.847 33.93-73.847 71.83 0 13.073 3.856 22.284 9.893 29.423 2.77 3.27 3.16 4.593 2.155 8.35-.72 2.76-2.37 9.412-3.052 12.044-1 3.806-4.075 5.165-7.51 3.757-20.956-8.552-30.72-31.505-30.72-57.31 0-42.603 35.934-93.698 107.204-93.698 57.26 0 94.954 41.446 94.954 85.932 0 58.832-32.704 102.794-80.924 102.794-16.197 0-31.432-8.76-36.646-18.69 0 0-8.71 34.564-10.55 41.228-3.18 11.574-9.41 23.13-15.1 32.133C120.99 297.83 135.24 300 150.01 300 232.842 300 300 232.852 300 150.01 299.994 67.146 232.83 0 150.003 0z"/>
</svg>