<svg xmlns="http://www.w3.org/2000/svg" viewBox="0 0 350 300">
  <path fill="#FFF" d="M350 35.514c-3.974 6.657-9.35 13.687-16.13 21.085-5.377 5.917-11.926 11.96-19.64 18.124v4.81c0 1.232.116 2.096.35 2.59v2.588c0 25.4-4.558 50.863-13.677 76.39-9.118 25.52-22.094 48.394-38.928 68.615-18.004 21.702-39.862 38.84-65.58 51.42C170.675 293.71 141.917 300 110.122 300c-20.576 0-39.98-2.96-58.218-8.88C33.2 285.203 15.9 276.82 0 265.968c.936.247 2.337.37 4.208.37 3.74.494 6.547.74 8.418.74h4.557c16.367 0 32.384-2.835 48.048-8.508 14.498-5.427 28.174-13.318 41.034-23.676-14.963-.246-28.876-5.426-41.732-15.538-12.626-9.863-21.044-22.317-25.25-37.36 3.506.74 5.727 1.11 6.663 1.11h3.504c.703.246 1.754.37 3.157.37 2.103 0 3.74-.124 4.91-.37 2.338 0 5.613-.494 9.82-1.48.466 0 1.17-.124 2.104-.37.937-.247 1.636-.37 2.103-.37-16.6-3.452-30.277-12.207-41.033-26.264-10.99-14.057-16.48-30.086-16.48-48.087V105.425c4.44 2.96 9.585 5.18 15.43 6.658 6.078 1.972 11.805 2.96 17.184 2.96-10.29-7.398-18.004-16.4-23.147-27.004-5.846-10.85-8.768-22.937-8.768-36.253 0-7.398.815-14.057 2.452-19.976.937-4.192 3.274-10.233 7.015-18.124 18.237 23.673 39.98 42.17 65.23 55.486 25.954 14.303 53.54 22.194 82.767 23.675-.7-5.18-1.05-8.015-1.05-8.508-.47-3.455-.704-6.29-.704-8.51 0-20.963 7.016-38.84 21.043-53.637C205.513 7.398 222.463 0 242.337 0c10.286 0 19.988 2.096 29.107 6.288 9.118 4.685 16.95 10.605 23.498 17.756 7.48-1.727 15.43-4.192 23.846-7.398 7.015-2.713 14.263-6.412 21.744-11.097-2.803 8.876-6.898 16.89-12.272 24.043-6.08 7.4-12.51 13.317-19.29 17.757 7.014-1.234 14.03-2.713 21.04-4.44 5.378-1.48 12.042-3.946 19.99-7.398v.002z"/>
</svg>