<svg xmlns="http://www.w3.org/2000/svg" viewBox="0 0 300 294">
  <path fill="#FFF" d="M243.567 139.1H54.433C24.37 139.1 0 163.54 0 193.653v43.836c0 30.115 24.37 54.55 54.433 54.55h189.134c30.057 0 54.433-24.435 54.433-54.55v-43.836c0-30.114-24.376-54.555-54.433-54.555zm-147.41 40.096H78.57v87.538H61.584v-87.538h-17.57v-14.89h52.142v14.89zm49.668 87.538h-15.068v-8.28c-2.8 3.063-5.687 5.4-8.7 6.977-3.015 1.645-5.925 2.412-8.756 2.412-3.5 0-6.1-1.114-7.88-3.38-1.75-2.257-2.642-5.606-2.642-10.13v-63.17h15.068v57.972c0 1.79.334 3.074.936 3.872.65.822 1.683 1.2 3.1 1.2 1.093 0 2.502-.525 4.197-1.584 1.706-1.07 3.262-2.41 4.677-4.066v-57.4h15.068v75.578zm54.707-15.602c0 5.34-1.185 9.442-3.548 12.303-2.35 2.86-5.79 4.267-10.244 4.267-2.965 0-5.602-.536-7.892-1.644-2.303-1.096-4.472-2.782-6.446-5.12v5.79h-15.25V164.305h15.25v32.988c2.04-2.283 4.198-4.054 6.453-5.24 2.303-1.212 4.618-1.797 6.963-1.797 4.77 0 8.403 1.595 10.918 4.815 2.528 3.22 3.785 7.938 3.785 14.123v41.937h.012zm52.27-20.363h-28.836v14.238c0 3.97.486 6.733 1.47 8.273 1.01 1.547 2.704 2.302 5.116 2.302 2.503 0 4.235-.65 5.243-1.954.972-1.315 1.495-4.176 1.495-8.62v-3.44h15.512v3.88c0 7.742-1.877 13.58-5.687 17.52-3.75 3.9-9.4 5.837-16.91 5.837-6.76 0-12.09-2.064-15.96-6.215-3.858-4.127-5.827-9.856-5.827-17.136V211.51c0-6.532 2.15-11.907 6.422-16.028 4.26-4.12 9.746-6.18 16.496-6.18 6.908 0 12.212 1.906 15.913 5.73 3.7 3.828 5.552 9.307 5.552 16.472v19.265zm-22.104-28.26c-2.406 0-4.12.677-5.164 2.09-1.07 1.326-1.568 3.597-1.568 6.768v7.64h13.324v-7.64c0-3.172-.535-5.448-1.592-6.77-1.014-1.405-2.71-2.087-5-2.087zm-51.99-.254c-1.07 0-2.15.237-3.19.73-1.057.48-2.09 1.278-3.11 2.313v47.073c1.208 1.217 2.405 2.155 3.572 2.69 1.16.518 2.363.81 3.645.81 1.853 0 3.202-.535 4.07-1.618.858-1.07 1.295-2.782 1.295-5.2V210.03c0-2.57-.51-4.494-1.58-5.815-1.106-1.302-2.673-1.96-4.702-1.96zm-99.51-89.407H98.3V66.036L120.544 0h-19.418L89.302 45.108H88.1L75.685 0H56.444l22.754 68.143v44.706zm67.23 2.1c7.715 0 13.767-2.027 18.178-6.08 4.38-4.074 6.574-9.63 6.574-16.754V49.114c0-6.337-2.242-11.554-6.708-15.578-4.496-4.012-10.256-6.033-17.28-6.033-7.716 0-13.86 1.91-18.428 5.728-4.557 3.818-6.847 8.937-6.847 15.408v43.148c0 7.08 2.23 12.68 6.683 16.88 4.454 4.183 10.408 6.284 17.827 6.284zm-7.037-66.944c0-1.808.65-3.27 1.92-4.413 1.32-1.12 2.99-1.662 5.068-1.662 2.242 0 4.06.543 5.444 1.663 1.38 1.144 2.066 2.605 2.066 4.413v45.358c0 2.222-.674 3.987-2.04 5.26-1.356 1.278-3.18 1.905-5.47 1.905-2.24 0-3.973-.61-5.188-1.888-1.197-1.248-1.805-3-1.805-5.284V48.006h.006zm57.41 66.06c3.19 0 6.466-.912 9.838-2.665 3.41-1.777 6.67-4.376 9.776-7.767v9.223h16.97V29.61h-16.97v63.187c-1.58 1.808-3.336 3.293-5.22 4.474-1.92 1.17-3.5 1.754-4.744 1.754-1.592 0-2.764-.438-3.45-1.345-.7-.872-1.095-2.296-1.095-4.25V29.61H184.96v69.573c0 4.96.996 8.67 2.965 11.128 2.005 2.497 4.933 3.757 8.876 3.757z"/>
</svg>